# xmcd
#
# Track frame offsets:
#	150
#	19370
#	40087
#	56845
#	74427
#	96242
#	112430
#	127517
#	145942
#	161392
#	180092
#
# Disc length: 2595 seconds
#
# Revision: 1
# Processed by: cddbd v1.4PL0 Copyright (c) Steve Scherf et al.
# Submitted via: audiograbber 1.80.04
#
DISCID=940a210b
DTITLE=Radoslav Lorkovic - Live From Cortile Mercato Vecchio, Verona, Italy
DYEAR=1997
DGENRE=Blues
TTITLE0=The Good Goes With the Bad
TTITLE1=Ridin' on the Night Train
TTITLE2=Tango 'Til They're Sore
TTITLE3=Country Sugar Mama
TTITLE4=In the Dark With You
TTITLE5=Big Chief
TTITLE6=Junco Partner
TTITLE7=Allegra
TTITLE8=Trouble Goodbye
TTITLE9=Closin' Time
TTITLE10=Cajun Accordion
EXTD=
EXTT0=
EXTT1=
EXTT2=
EXTT3=
EXTT4=
EXTT5=
EXTT6=
EXTT7=
EXTT8=
EXTT9=
EXTT10=
PLAYORDER=
